# xmcd
#
# Track frame offsets:
#	150
#	16552
#	29252
#	41800
#	58660
#	76812
#	89537
#	106812
#	124537
#	134620
#	153610
#	170062
#	183700
#	200287
#
# Disc length: 2801 seconds
#
# Revision: 1
# Processed by: cddbd v1.5.2PL0 Copyright (c) Steve Scherf et al.
# Submitted via: audiograbber 1.83.01
#
DISCID=b70aef0e
DTITLE=Sandro - Grandes Exitos
DYEAR=1900
DGENRE=Other
TTITLE0=Penumbras
TTITLE1=Palabras Viejas
TTITLE2=Una muchacha y una guitarra
TTITLE3=Le puede pasar a cualquiera
TTITLE4=Una estrella personal
TTITLE5=Rosa rosa
TTITLE6=Tu poesia y mi amor
TTITLE7=La vieja Maestra
TTITLE8=Tengo
TTITLE9=Sera especial esta noche
TTITLE10=Asi
TTITLE11=Ave de paso
TTITLE12=Trigal
TTITLE13=Por algun camino
EXTD=
EXTT0=
EXTT1=
EXTT2=
EXTT3=
EXTT4=
EXTT5=
EXTT6=
EXTT7=
EXTT8=
EXTT9=
EXTT10=
EXTT11=
EXTT12=
EXTT13=
PLAYORDER=
